<?xml version="1.0" standalone="no"?>
<!DOCTYPE svg PUBLIC "-//W3C//DTD SVG 20010904//EN"
 "http://www.w3.org/TR/2001/REC-SVG-20010904/DTD/svg10.dtd">
<svg version="1.0" xmlns="http://www.w3.org/2000/svg"
 width="223.000000pt" height="223.000000pt" viewBox="0 0 223.000000 223.000000"
 preserveAspectRatio="xMidYMid meet">
<metadata>
Created by potrace 1.11, written by Peter Selinger 2001-2013
</metadata>
<g transform="translate(0.000000,223.000000) scale(0.100000,-0.100000)"
fill="#000000" stroke="none">
<path d="M1662 1999 c2 -60 -15 -96 -63 -130 -16 -11 -40 -35 -54 -53 -24 -31
-24 -34 -9 -64 14 -30 14 -34 -5 -60 -23 -32 -84 -82 -100 -82 -6 0 -11 -5
-11 -12 0 -6 -3 -8 -7 -5 -11 11 -32 -27 -32 -58 0 -51 17 -64 84 -60 111 6
207 36 289 92 26 18 53 33 59 33 5 0 2 8 -7 19 -11 12 -15 27 -11 44 9 33 -21
200 -45 253 -10 24 -35 64 -54 90 l-36 47 2 -54z"/>
<path d="M1816 1573 c-34 -45 -304 -153 -419 -168 l-59 -7 4 -34 c5 -40 3 -41
-94 -50 -84 -7 -93 -11 -78 -29 7 -8 25 -11 54 -8 l44 5 -2 -43 c-2 -40 -6
-46 -42 -66 l-39 -22 -5 -153 -5 -153 -91 -5 c-88 -5 -93 -6 -170 -55 -43 -28
-79 -57 -79 -65 0 -29 37 -21 103 22 65 42 68 43 144 42 43 -1 81 -4 84 -7 4
-3 5 -60 5 -127 -2 -115 -1 -122 21 -140 13 -11 29 -17 36 -15 6 2 12 0 12 -6
0 -12 -58 -2 -77 13 -10 8 -17 0 -29 -28 -9 -22 -36 -70 -61 -107 l-44 -69 7
-71 c3 -40 10 -78 14 -86 12 -22 88 -41 136 -34 37 5 44 2 75 -28 19 -19 53
-43 77 -53 40 -18 49 -19 100 -7 31 7 83 17 115 22 43 7 83 24 152 65 104 62
117 81 114 160 -2 40 4 59 29 99 17 28 38 68 47 90 9 22 36 55 60 75 24 19 57
53 74 76 25 34 30 50 31 105 2 35 -1 78 -5 94 -15 66 -93 189 -152 240 -19 16
-22 28 -20 65 2 25 10 56 18 70 9 17 14 58 14 130 0 103 -1 106 -37 167 -20
34 -38 75 -40 91 l-3 30 -19 -25z m-179 -365 c-3 -7 -5 -2 -5 12 0 14 2 19 5
13 2 -7 2 -19 0 -25z m-237 -54 c0 -11 -5 -14 -16 -10 -9 3 -18 6 -20 6 -3 0
-2 5 1 10 10 16 35 12 35 -6z m510 -235 c41 -19 43 -21 25 -31 -25 -14 -63
-57 -70 -80 -6 -16 -34 -33 -42 -25 -2 3 12 26 32 52 46 59 42 82 -11 60 -50
-21 -112 -71 -130 -106 -14 -28 -13 -32 6 -59 12 -17 26 -30 31 -30 26 0 3
-21 -47 -44 -43 -20 -60 -23 -70 -15 -8 6 -14 16 -14 22 0 6 -9 21 -21 33
l-21 23 22 38 c20 36 119 112 183 140 15 7 27 16 27 22 0 9 19 17 45 20 6 0
30 -9 55 -20z m-470 -271 c0 -10 2 -10 9 0 7 11 9 11 13 0 4 -9 -3 -15 -19
-16 -30 -2 -46 6 -38 19 9 13 35 11 35 -3z m-46 -179 c28 -22 34 -44 14 -52
-9 -3 -14 -31 -16 -77 -3 -74 -7 -90 -21 -90 -5 0 -7 27 -6 61 3 59 -9 119
-25 119 -9 0 -20 47 -12 55 11 11 40 4 66 -16z m-224 -54 c11 -13 8 -15 -15
-15 -23 0 -26 2 -15 15 7 8 14 15 15 15 1 0 8 -7 15 -15z"/>
<path d="M1338 1553 c7 -3 16 -2 19 1 4 3 -2 6 -13 5 -11 0 -14 -3 -6 -6z"/>
<path d="M316 1270 c3 -36 13 -74 20 -85 8 -11 14 -32 14 -47 0 -18 5 -28 14
-28 24 0 27 16 10 61 -9 24 -18 57 -20 73 -2 16 -13 43 -25 60 l-20 31 7 -65z"/>
<path d="M671 1303 c-40 -34 -23 -125 30 -153 38 -21 160 2 237 43 26 15 32
23 32 52 0 43 -13 50 -113 64 -112 16 -161 14 -186 -6z"/>
<path d="M985 1299 c58 -12 144 -11 125 1 -8 5 -49 9 -90 9 -66 -1 -70 -2 -35
-10z"/>
<path d="M485 1199 c-4 -6 -2 -45 4 -87 7 -42 13 -95 14 -117 2 -37 4 -40 41
-49 33 -7 41 -6 53 10 22 30 15 58 -22 94 -26 25 -35 43 -35 66 0 59 -11 94
-31 94 -10 0 -21 -5 -24 -11z"/>
<path d="M390 895 c0 -2 21 -33 48 -68 26 -35 56 -76 68 -92 23 -33 48 -30 65
9 15 31 -8 64 -73 106 -41 27 -108 55 -108 45z"/>
<path d="M177 793 c-7 -12 -5 -38 10 -117 3 -19 37 -63 92 -121 69 -72 96
-110 128 -177 38 -80 43 -85 67 -81 21 4 24 8 15 19 -12 15 -4 48 10 40 5 -3
14 1 21 10 7 8 18 13 25 10 6 -2 22 5 36 15 l24 19 -25 20 c-14 11 -28 20 -32
20 -20 0 -147 68 -170 90 -15 14 -41 36 -58 50 -54 44 -59 50 -70 90 -6 23
-21 47 -35 56 -13 8 -25 28 -27 42 -2 18 -6 23 -11 15z"/>
<path d="M1074 465 c-15 -20 -24 -38 -22 -41 7 -6 58 54 58 67 0 16 -8 10 -36
-26z"/>
<path d="M967 253 c-4 -4 -29 -6 -55 -4 -67 3 -97 -22 -96 -77 2 -49 -14 -54
-91 -34 -27 8 -73 15 -102 17 -50 4 -150 45 -165 69 -14 21 -15 0 -2 -31 11
-25 30 -41 81 -67 38 -19 82 -44 98 -55 19 -14 46 -21 75 -21 25 0 76 -9 114
-19 64 -18 71 -18 119 -2 44 14 52 20 57 46 4 17 11 39 17 49 7 13 5 27 -9 54
-10 20 -18 47 -18 59 0 23 -10 30 -23 16z"/>
</g>
</svg>
